<svg width="52" height="52" viewBox="0 0 52 52" fill="none" xmlns="http://www.w3.org/2000/svg">
<g clip-path="url(#clip0_118_819)">
<g clip-path="url(#clip1_118_819)">
<g clip-path="url(#clip2_118_819)">
<g clip-path="url(#clip3_118_819)">
<path d="M29.1522 17.5124C30.9115 17.5124 32.3376 16.0863 32.3376 14.327C32.3376 12.5678 30.9115 11.1416 29.1522 11.1416C27.393 11.1416 25.9668 12.5678 25.9668 14.327C25.9668 16.0863 27.393 17.5124 29.1522 17.5124Z" fill="#F68820"/>
</g>
<path d="M46.354 46.8181L32.3382 28.1301V14.725C32.3382 13.8459 31.6246 13.1323 30.7455 13.1323C29.8663 13.1323 29.1528 13.8459 29.1528 14.725V28.1301L15.1369 46.8181C14.6089 47.5221 14.7523 48.5207 15.4555 49.0479C15.7422 49.2637 16.0774 49.3664 16.4103 49.3664C16.8945 49.3664 17.3723 49.1466 17.6861 48.7294L29.1536 33.4394V47.7737C29.1536 48.6529 29.8671 49.3664 30.7463 49.3664C31.6254 49.3664 32.339 48.6529 32.339 47.7737V33.4394L43.8065 48.7294C44.1194 49.1459 44.5981 49.3664 45.0822 49.3664C45.4143 49.3664 45.7504 49.2629 46.0371 49.0479C46.7387 48.5207 46.8812 47.5221 46.354 46.8181Z" fill="#55525B"/>
<g clip-path="url(#clip4_118_819)">
<path d="M25.9645 38.2178C25.2995 38.2178 24.629 38.01 24.0556 37.5807C22.6476 36.5248 22.3633 34.5283 23.4185 33.1203L28.1966 26.7495C29.2534 25.3423 31.2491 25.0588 32.6562 26.1124C34.0642 27.1684 34.3485 29.1649 33.2933 30.5728L28.5152 36.9436C27.8893 37.7782 26.9328 38.2178 25.9645 38.2178Z" fill="#5C76B2"/>
</g>
<g clip-path="url(#clip5_118_819)">
<path d="M35.5264 38.2176C34.5581 38.2176 33.6016 37.778 32.9757 36.9435L28.1976 30.5726C27.1424 29.1647 27.4275 27.169 28.8347 26.1123C30.241 25.0579 32.2375 25.3406 33.2942 26.7493L38.0724 33.1202C39.1275 34.5281 38.8424 36.5238 37.4353 37.5805C36.8619 38.0106 36.1914 38.2176 35.5264 38.2176Z" fill="#5C76B2"/>
</g>
<g clip-path="url(#clip6_118_819)">
<g clip-path="url(#clip7_118_819)">
<path d="M45.6186 9.75518L42.4818 9.20171C39.8833 8.74381 37.405 10.4791 36.9463 13.0776C36.4884 15.6761 38.2237 18.1543 40.8222 18.613L43.959 19.1665C46.5575 19.6244 49.0358 17.8891 49.4945 15.2906C49.9524 12.6913 48.2171 10.2131 45.6186 9.75518Z" fill="#F68820"/>
</g>
<g clip-path="url(#clip8_118_819)">
<path d="M41.6512 18.6856C44.2901 18.6856 46.4293 16.5464 46.4293 13.9075C46.4293 11.2686 44.2901 9.12939 41.6512 9.12939C39.0123 9.12939 36.873 11.2686 36.873 13.9075C36.873 16.5464 39.0123 18.6856 41.6512 18.6856Z" fill="#FBBE18"/>
</g>
<g clip-path="url(#clip9_118_819)">
<path d="M41.0985 17.0446L30.1191 15.1086L31.2253 8.83496L42.2046 10.7709C43.9375 11.0767 45.0938 12.7283 44.7888 14.4612C44.483 16.1925 42.8313 17.3496 41.0985 17.0446Z" fill="#6FA4D8"/>
</g>
<g clip-path="url(#clip10_118_819)">
<path d="M30.1191 15.108L41.0985 17.044C42.8313 17.3498 44.483 16.1927 44.7888 14.4598L30.6726 11.9712L30.1191 15.108Z" fill="#5C76B2"/>
</g>
<g clip-path="url(#clip11_118_819)">
<path d="M26.7059 16.1231L15.7266 14.1872L17.3862 4.77588L28.3655 6.71182C30.964 7.16972 32.6993 9.64798 32.2414 12.2473C31.7835 14.8466 29.3052 16.5818 26.7059 16.1231Z" fill="#6FA4D8"/>
</g>
<g clip-path="url(#clip12_118_819)">
<path d="M15.7266 14.1876L26.7059 16.1235C29.3044 16.5814 31.7827 14.8462 32.2414 12.2477L16.5564 9.48193L15.7266 14.1876Z" fill="#5C76B2"/>
</g>
<g clip-path="url(#clip13_118_819)">
<path d="M14.8013 1.0869L11.6645 0.533433C7.3331 -0.230271 3.20321 2.66209 2.43871 6.99346C1.675 11.3248 4.56736 15.4547 8.89873 16.2192L12.0356 16.7727C16.3669 17.5364 20.4976 14.644 21.2613 10.3127C22.025 5.98049 19.1327 1.8506 14.8013 1.0869Z" fill="#F68820"/>
</g>
<g clip-path="url(#clip14_118_819)">
<path d="M10.2839 16.3397C14.682 16.3397 18.2474 12.7743 18.2474 8.37614C18.2474 3.978 14.682 0.412598 10.2839 0.412598C5.88571 0.412598 2.32031 3.978 2.32031 8.37614C2.32031 12.7743 5.88571 16.3397 10.2839 16.3397Z" fill="#FBBE18"/>
</g>
<g clip-path="url(#clip15_118_819)">
<path d="M10.2829 14.7465C13.8015 14.7465 16.6538 11.8942 16.6538 8.37572C16.6538 4.8572 13.8015 2.00488 10.2829 2.00488C6.76443 2.00488 3.91211 4.8572 3.91211 8.37572C3.91211 11.8942 6.76443 14.7465 10.2829 14.7465Z" fill="#55525B"/>
</g>
<g clip-path="url(#clip16_118_819)">
<path d="M9.48219 2.0542C7.40211 2.3162 5.5705 3.59833 4.61328 5.46339C4.91191 6.642 5.86913 7.59762 7.14409 7.82299C8.87696 8.12879 10.5286 6.97169 10.8344 5.23882C11.0582 3.96386 10.488 2.73747 9.48219 2.0542Z" fill="#B3B4B6"/>
</g>
</g>
<g clip-path="url(#clip17_118_819)">
<path d="M32.3378 17.5124C34.097 17.5124 35.5232 16.0863 35.5232 14.327C35.5232 12.5678 34.097 11.1416 32.3378 11.1416C30.5785 11.1416 29.1523 12.5678 29.1523 14.327C29.1523 16.0863 30.5785 17.5124 32.3378 17.5124Z" fill="#FBBE18"/>
</g>
<g clip-path="url(#clip18_118_819)">
<path d="M32.3368 15.9198C33.2165 15.9198 33.9296 15.2067 33.9296 14.3271C33.9296 13.4475 33.2165 12.7344 32.3368 12.7344C31.4572 12.7344 30.7441 13.4475 30.7441 14.3271C30.7441 15.2067 31.4572 15.9198 32.3368 15.9198Z" fill="#55525B"/>
</g>
<g clip-path="url(#clip19_118_819)">
<path d="M16.41 50.9592C18.1693 50.9592 19.5954 49.533 19.5954 47.7738C19.5954 46.0145 18.1693 44.5884 16.41 44.5884C14.6508 44.5884 13.2246 46.0145 13.2246 47.7738C13.2246 49.533 14.6508 50.9592 16.41 50.9592Z" fill="#F68820"/>
</g>
<g clip-path="url(#clip20_118_819)">
<path d="M45.0799 50.9592C46.8392 50.9592 48.2654 49.533 48.2654 47.7738C48.2654 46.0145 46.8392 44.5884 45.0799 44.5884C43.3207 44.5884 41.8945 46.0145 41.8945 47.7738C41.8945 49.533 43.3207 50.9592 45.0799 50.9592Z" fill="#F68820"/>
</g>
<g clip-path="url(#clip21_118_819)">
<path d="M30.744 50.9592C32.5033 50.9592 33.9294 49.533 33.9294 47.7738C33.9294 46.0145 32.5033 44.5884 30.744 44.5884C28.9848 44.5884 27.5586 46.0145 27.5586 47.7738C27.5586 49.533 28.9848 50.9592 30.744 50.9592Z" fill="#F68820"/>
</g>
<g clip-path="url(#clip22_118_819)">
<path d="M30.744 38.2177C28.9849 38.2177 27.5586 36.7915 27.5586 35.0323V28.6615C27.5586 26.9023 28.9849 25.4761 30.744 25.4761C32.5032 25.4761 33.9294 26.9023 33.9294 28.6615V35.0323C33.9294 36.7915 32.5032 38.2177 30.744 38.2177Z" fill="#F68820"/>
</g>
<g clip-path="url(#clip23_118_819)">
<path d="M30.744 38.2177C28.9849 38.2177 27.5586 36.7915 27.5586 35.0323V28.6615C27.5586 26.9023 28.9849 25.4761 30.744 25.4761C32.5032 25.4761 33.9294 26.9023 33.9294 28.6615V35.0323C33.9294 36.7915 32.5032 38.2177 30.744 38.2177Z" fill="#6FA4D8"/>
</g>
</g>
</g>
</g>
<defs>
<clipPath id="clip0_118_819">
<rect width="50.9667" height="50.9667" fill="white" transform="translate(0.458984 0.202148)"/>
</clipPath>
<clipPath id="clip1_118_819">
<rect width="50.9667" height="50.9667" fill="white" transform="translate(0.458984 0.202148)"/>
</clipPath>
<clipPath id="clip2_118_819">
<rect width="47.2514" height="50.5482" fill="white" transform="translate(2.31641 0.411133)"/>
</clipPath>
<clipPath id="clip3_118_819">
<rect width="6.37083" height="6.37083" fill="white" transform="translate(25.9668 11.1416)"/>
</clipPath>
<clipPath id="clip4_118_819">
<rect width="11.1493" height="12.7417" fill="white" transform="translate(22.7812 25.4761)"/>
</clipPath>
<clipPath id="clip5_118_819">
<rect width="11.1489" height="12.7425" fill="white" transform="translate(27.5605 25.4751)"/>
</clipPath>
<clipPath id="clip6_118_819">
<rect width="47.2514" height="18.8287" fill="white" transform="translate(2.31641 0.411133)"/>
</clipPath>
<clipPath id="clip7_118_819">
<rect width="12.6947" height="10.1114" fill="white" transform="translate(36.873 9.12842)"/>
</clipPath>
<clipPath id="clip8_118_819">
<rect width="9.55625" height="9.55624" fill="white" transform="translate(36.873 9.12939)"/>
</clipPath>
<clipPath id="clip9_118_819">
<rect width="14.7184" height="8.2584" fill="white" transform="translate(30.1191 8.83496)"/>
</clipPath>
<clipPath id="clip10_118_819">
<rect width="14.6696" height="5.12178" fill="white" transform="translate(30.1191 11.9712)"/>
</clipPath>
<clipPath id="clip11_118_819">
<rect width="16.5881" height="11.4208" fill="white" transform="translate(15.7266 4.77588)"/>
</clipPath>
<clipPath id="clip12_118_819">
<rect width="16.5148" height="6.71488" fill="white" transform="translate(15.7266 9.48193)"/>
</clipPath>
<clipPath id="clip13_118_819">
<rect width="19.0672" height="16.4839" fill="white" transform="translate(2.31641 0.411133)"/>
</clipPath>
<clipPath id="clip14_118_819">
<rect width="15.9271" height="15.9271" fill="white" transform="translate(2.32031 0.412598)"/>
</clipPath>
<clipPath id="clip15_118_819">
<rect width="12.7417" height="12.7417" fill="white" transform="translate(3.91211 2.00488)"/>
</clipPath>
<clipPath id="clip16_118_819">
<rect width="6.26947" height="5.8178" fill="white" transform="translate(4.61328 2.0542)"/>
</clipPath>
<clipPath id="clip17_118_819">
<rect width="6.37083" height="6.37083" fill="white" transform="translate(29.1523 11.1416)"/>
</clipPath>
<clipPath id="clip18_118_819">
<rect width="3.18542" height="3.18541" fill="white" transform="translate(30.7441 12.7344)"/>
</clipPath>
<clipPath id="clip19_118_819">
<rect width="6.37083" height="6.37083" fill="white" transform="translate(13.2246 44.5884)"/>
</clipPath>
<clipPath id="clip20_118_819">
<rect width="6.37083" height="6.37083" fill="white" transform="translate(41.8945 44.5884)"/>
</clipPath>
<clipPath id="clip21_118_819">
<rect width="6.37083" height="6.37083" fill="white" transform="translate(27.5586 44.5884)"/>
</clipPath>
<clipPath id="clip22_118_819">
<rect width="6.37083" height="12.7417" fill="white" transform="translate(27.5586 25.4761)"/>
</clipPath>
<clipPath id="clip23_118_819">
<rect width="6.37083" height="12.7417" fill="white" transform="translate(27.5586 25.4761)"/>
</clipPath>
</defs>
</svg>
