<svg width="52" height="52" viewBox="0 0 52 52" fill="none" xmlns="http://www.w3.org/2000/svg">
<g clip-path="url(#clip0_118_915)">
<g clip-path="url(#clip1_118_915)">
<g clip-path="url(#clip2_118_915)">
<g clip-path="url(#clip3_118_915)">
<path d="M20.0272 36.0377C18.2681 36.0377 16.8418 34.6114 16.8418 32.8523V29.6669C16.8418 27.9077 18.2681 26.4814 20.0272 26.4814V36.0377Z" fill="#6FA4D8"/>
</g>
<g clip-path="url(#clip4_118_915)">
<path d="M32.7695 36.0377C34.5287 36.0377 35.9549 34.6114 35.9549 32.8523V29.6669C35.9549 27.9077 34.5287 26.4814 32.7695 26.4814V36.0377Z" fill="#5C76B2"/>
</g>
<g clip-path="url(#clip5_118_915)">
<path d="M32.7689 12.1475H20.0272C18.2681 12.1475 16.8418 13.5737 16.8418 15.3329V23.2964C16.8418 25.0556 18.2681 26.4818 20.0272 26.4818V36.0381C20.0272 38.6772 22.1662 40.8162 24.8053 40.8162H27.9908C30.6299 40.8162 32.7689 38.6772 32.7689 36.0381V26.4818C34.528 26.4818 35.9543 25.0556 35.9543 23.2964V15.3329C35.9543 13.5737 34.528 12.1475 32.7689 12.1475Z" fill="#F68820"/>
</g>
<g clip-path="url(#clip6_118_915)">
<path d="M23.2134 12.1473H15.2499C14.3699 12.1473 13.6572 11.4346 13.6572 10.5546V9.75827C13.6572 9.31868 13.3004 8.96191 12.8608 8.96191C12.4212 8.96191 12.0645 9.31868 12.0645 9.75827V12.1473C12.0645 13.9065 13.4907 15.3327 15.2499 15.3327H21.6207C24.2598 15.3327 26.3988 17.4718 26.3988 20.1109V15.3327C26.3988 13.5736 24.9726 12.1473 23.2134 12.1473Z" fill="#6FA4D8"/>
</g>
<g clip-path="url(#clip7_118_915)">
<path d="M29.5839 12.1473H37.5474C38.4274 12.1473 39.1401 11.4346 39.1401 10.5546V9.75827C39.1401 9.31868 39.4969 8.96191 39.9365 8.96191C40.376 8.96191 40.7328 9.31868 40.7328 9.75827V12.1473C40.7328 13.9065 39.3065 15.3327 37.5474 15.3327H31.1766C28.5374 15.3327 26.3984 17.4718 26.3984 20.1109V15.3327C26.3984 13.5736 27.8247 12.1473 29.5839 12.1473Z" fill="#5C76B2"/>
</g>
<g clip-path="url(#clip8_118_915)">
<g clip-path="url(#clip9_118_915)">
<path d="M39.1406 47.187V50.3724H12.0646V47.187H39.1406Z" fill="#F68820"/>
</g>
<g clip-path="url(#clip10_118_915)">
<path d="M39.1406 40.8159V44.0013H12.0646V40.8159H39.1406Z" fill="#FBD301"/>
</g>
<g clip-path="url(#clip11_118_915)">
<path d="M12.0645 44.0015H39.1405V47.1869H12.0645V44.0015Z" fill="#FBBE18"/>
</g>
<g clip-path="url(#clip12_118_915)">
<path d="M12.0647 40.8159L3.22039 45.2381C2.92654 45.3846 2.92654 45.8035 3.22039 45.95L12.0647 50.3722V40.8159Z" fill="#DB9E68"/>
</g>
<g clip-path="url(#clip13_118_915)">
<path d="M12.0661 40.8159L3.22175 45.2381C3.07522 45.3113 3.00195 45.4523 3.00195 45.594H12.0661V40.8159Z" fill="#EEC78E"/>
</g>
<g clip-path="url(#clip14_118_915)">
<path d="M4.10116 44.7979L3.22039 45.2382C2.92654 45.3848 2.92654 45.8036 3.22039 45.9502L4.10116 46.3906V44.7979Z" fill="#353744"/>
</g>
<g clip-path="url(#clip15_118_915)">
<path d="M42.3262 40.8159V50.3722H39.1408V40.8159H42.3262Z" fill="#B3B4B6"/>
</g>
<g clip-path="url(#clip16_118_915)">
<path d="M42.3262 40.8159V45.594H39.1408V40.8159H42.3262Z" fill="#DBDEE3"/>
</g>
<g clip-path="url(#clip17_118_915)">
<path d="M48.697 47.9831V43.205C48.697 41.8854 47.6275 40.8159 46.3079 40.8159H42.3262V50.3722H45.5116H46.3079C47.6275 50.3722 48.697 49.3027 48.697 47.9831Z" fill="#353744"/>
</g>
<g clip-path="url(#clip18_118_915)">
<path d="M48.697 45.594V43.205C48.697 41.8854 47.6275 40.8159 46.3079 40.8159H42.3262V45.594H48.697Z" fill="#55525B"/>
</g>
</g>
<g clip-path="url(#clip19_118_915)">
<path d="M43.9194 5.77624H8.87982C7.99985 5.77624 7.28711 5.0635 7.28711 4.18353C7.28711 3.30356 7.99985 2.59082 8.87982 2.59082H43.9194C44.7994 2.59082 45.5121 3.30356 45.5121 4.18353C45.5121 5.0635 44.7994 5.77624 43.9194 5.77624Z" fill="#353744"/>
</g>
<g clip-path="url(#clip20_118_915)">
<path d="M27.9923 4.18353C27.9923 3.30356 27.2796 2.59082 26.3996 2.59082H8.87982C7.99985 2.59082 7.28711 3.30356 7.28711 4.18353C7.28711 5.0627 7.99985 5.77624 8.87982 5.77624H26.3996C27.2796 5.77624 27.9923 5.0627 27.9923 4.18353Z" fill="#55525B"/>
</g>
<g clip-path="url(#clip21_118_915)">
<path d="M36.3537 12.1472H16.4448C16.0052 12.1472 15.6484 11.7904 15.6484 11.3508V5.77637H37.15V11.3508C37.15 11.7904 36.7932 12.1472 36.3537 12.1472Z" fill="#353744"/>
</g>
<g clip-path="url(#clip22_118_915)">
<path d="M26.3992 12.1473H16.4448C16.0052 12.1473 15.6484 11.7906 15.6484 11.351V8.96191H24.8065C25.6865 8.96191 26.3992 9.67465 26.3992 10.5546V12.1473Z" fill="#55525B"/>
</g>
<g clip-path="url(#clip23_118_915)">
<path d="M40.7324 2.59082H42.3251V12.1471H40.7324V2.59082Z" fill="#F68820"/>
</g>
<g clip-path="url(#clip24_118_915)">
<path d="M24.8066 2.59124H42.3264C42.3264 1.71127 41.6137 0.998535 40.7337 0.998535H26.3994C25.5194 0.998535 24.8066 1.71127 24.8066 2.59124Z" fill="#FBBE18"/>
</g>
<g clip-path="url(#clip25_118_915)">
<path d="M41.5302 13.7401C42.4098 13.7401 43.1229 13.027 43.1229 12.1474C43.1229 11.2678 42.4098 10.5547 41.5302 10.5547C40.6506 10.5547 39.9375 11.2678 39.9375 12.1474C39.9375 13.027 40.6506 13.7401 41.5302 13.7401Z" fill="#FBBE18"/>
</g>
<g clip-path="url(#clip26_118_915)">
<path d="M39.9375 12.1475H43.1229V13.7402H39.9375V12.1475Z" fill="#B3B4B6"/>
</g>
<g clip-path="url(#clip27_118_915)">
<path d="M39.9375 12.1475H41.5302V13.7402H39.9375V12.1475Z" fill="#DBDEE3"/>
</g>
<g clip-path="url(#clip28_118_915)">
<path d="M41.5297 20.1111H39.937C39.4974 20.1111 39.1406 19.7543 39.1406 19.3147V14.5366C39.1406 14.097 39.4974 13.7402 39.937 13.7402H41.5297V20.1111Z" fill="#FBBE18"/>
</g>
<g clip-path="url(#clip29_118_915)">
<path d="M41.5293 20.1111H43.122C43.5616 20.1111 43.9184 19.7543 43.9184 19.3147V14.5366C43.9184 14.097 43.5616 13.7402 43.122 13.7402H41.5293V20.1111Z" fill="#F68820"/>
</g>
<g clip-path="url(#clip30_118_915)">
<path d="M40.7339 20.1106V14.9343C40.7339 14.7145 40.5555 14.5361 40.3357 14.5361C40.1159 14.5361 39.9375 14.7145 39.9375 14.9343V20.1106H40.7339Z" fill="#F68820"/>
</g>
<g clip-path="url(#clip31_118_915)">
<path d="M43.1225 20.1107V17.3235C43.1225 17.1037 42.9441 16.9253 42.7243 16.9253C42.5046 16.9253 42.3262 17.1037 42.3262 17.3235V20.1107H43.1225Z" fill="#FBBE18"/>
</g>
<g clip-path="url(#clip32_118_915)">
<path d="M21.6199 24.8888C24.2588 24.8888 26.3981 22.7495 26.3981 20.1106C26.3981 17.4718 24.2588 15.3325 21.6199 15.3325C18.981 15.3325 16.8418 17.4718 16.8418 20.1106C16.8418 22.7495 18.981 24.8888 21.6199 24.8888Z" fill="#DBDEE3"/>
</g>
<g clip-path="url(#clip33_118_915)">
<path d="M21.6199 24.8888C24.2588 24.8888 26.3981 22.7495 26.3981 20.1106C26.3981 17.4718 24.2588 15.3325 21.6199 15.3325C18.981 15.3325 16.8418 17.4718 16.8418 20.1106C16.8418 22.7495 18.981 24.8888 21.6199 24.8888Z" fill="#DBDEE3"/>
</g>
<g clip-path="url(#clip34_118_915)">
<path d="M21.6201 21.7035C22.4997 21.7035 23.2128 20.9904 23.2128 20.1108C23.2128 19.2311 22.4997 18.5181 21.6201 18.5181C20.7404 18.5181 20.0273 19.2311 20.0273 20.1108C20.0273 20.9904 20.7404 21.7035 21.6201 21.7035Z" fill="#55525B"/>
</g>
<g clip-path="url(#clip35_118_915)">
<path d="M31.1766 24.8888C33.8154 24.8888 35.9547 22.7495 35.9547 20.1106C35.9547 17.4718 33.8154 15.3325 31.1766 15.3325C28.5377 15.3325 26.3984 17.4718 26.3984 20.1106C26.3984 22.7495 28.5377 24.8888 31.1766 24.8888Z" fill="#DBDEE3"/>
</g>
<g clip-path="url(#clip36_118_915)">
<path d="M31.1767 21.7035C32.0563 21.7035 32.7694 20.9904 32.7694 20.1108C32.7694 19.2311 32.0563 18.5181 31.1767 18.5181C30.2971 18.5181 29.584 19.2311 29.584 20.1108C29.584 20.9904 30.2971 21.7035 31.1767 21.7035Z" fill="#55525B"/>
</g>
<g clip-path="url(#clip37_118_915)">
<path d="M26.3986 20.1108C27.3861 20.1108 28.09 21.0689 27.7954 22.0109L27.1583 24.0488C26.9258 24.7942 25.8706 24.7942 25.6381 24.0488L25.001 22.0109C24.7071 21.0689 25.4111 20.1108 26.3986 20.1108Z" fill="#55525B"/>
</g>
<g clip-path="url(#clip38_118_915)">
<path d="M24.0107 28.0742C23.1307 28.0742 22.418 27.3614 22.418 26.4814H25.6034C25.6034 27.3614 24.8906 28.0742 24.0107 28.0742Z" fill="#FBBE18"/>
</g>
<g clip-path="url(#clip39_118_915)">
<path d="M28.788 28.0742C27.908 28.0742 27.1953 27.3614 27.1953 26.4814H30.3807C30.3807 27.3614 29.668 28.0742 28.788 28.0742Z" fill="#FBBE18"/>
</g>
<g clip-path="url(#clip40_118_915)">
<path d="M24.0107 34.4452C23.1307 34.4452 22.418 33.7325 22.418 32.8525H25.6034C25.6034 33.7325 24.8906 34.4452 24.0107 34.4452Z" fill="#FBBE18"/>
</g>
<g clip-path="url(#clip41_118_915)">
<path d="M28.788 34.4452C27.908 34.4452 27.1953 33.7325 27.1953 32.8525H30.3807C30.3807 33.7325 29.668 34.4452 28.788 34.4452Z" fill="#FBBE18"/>
</g>
<g clip-path="url(#clip42_118_915)">
<path d="M26.3994 31.2597C25.5194 31.2597 24.8066 30.547 24.8066 29.667H27.9921C27.9921 30.547 27.2793 31.2597 26.3994 31.2597Z" fill="#FBBE18"/>
</g>
<g clip-path="url(#clip43_118_915)">
<path d="M26.3994 37.6308C25.5194 37.6308 24.8066 36.9181 24.8066 36.0381H27.9921C27.9921 36.9181 27.2793 37.6308 26.3994 37.6308Z" fill="#FBBE18"/>
</g>
<g clip-path="url(#clip44_118_915)">
<path d="M21.2221 42.4086C21.6617 42.4086 22.0185 42.0518 22.0185 41.6122V40.0195C22.0185 39.5799 21.6617 39.2231 21.2221 39.2231C20.7825 39.2231 20.4258 39.5799 20.4258 40.0195V41.6122C20.4258 42.0518 20.7825 42.4086 21.2221 42.4086Z" fill="#6FA4D8"/>
</g>
<g clip-path="url(#clip45_118_915)">
<path d="M22.8159 42.4086C23.2555 42.4086 23.6122 42.0518 23.6122 41.6122V40.0195C23.6122 39.5799 23.2555 39.2231 22.8159 39.2231C22.3763 39.2231 22.0195 39.5799 22.0195 40.0195V41.6122C22.0195 42.0518 22.3763 42.4086 22.8159 42.4086Z" fill="#6FA4D8"/>
</g>
<g clip-path="url(#clip46_118_915)">
<path d="M24.4077 42.4086C24.8473 42.4086 25.204 42.0518 25.204 41.6122V40.0195C25.204 39.5799 24.8473 39.2231 24.4077 39.2231C23.9681 39.2231 23.6113 39.5799 23.6113 40.0195V41.6122C23.6113 42.0518 23.9681 42.4086 24.4077 42.4086Z" fill="#6FA4D8"/>
</g>
<g clip-path="url(#clip47_118_915)">
<path d="M28.3901 42.4086C28.8297 42.4086 29.1865 42.0518 29.1865 41.6122V40.0195C29.1865 39.5799 28.8297 39.2231 28.3901 39.2231C27.9505 39.2231 27.5938 39.5799 27.5938 40.0195V41.6122C27.5938 42.0518 27.9505 42.4086 28.3901 42.4086Z" fill="#6FA4D8"/>
</g>
<g clip-path="url(#clip48_118_915)">
<path d="M29.9819 42.4086C30.4215 42.4086 30.7783 42.0518 30.7783 41.6122V40.0195C30.7783 39.5799 30.4215 39.2231 29.9819 39.2231C29.5423 39.2231 29.1855 39.5799 29.1855 40.0195V41.6122C29.1855 42.0518 29.5423 42.4086 29.9819 42.4086Z" fill="#6FA4D8"/>
</g>
<g clip-path="url(#clip49_118_915)">
<path d="M31.5757 42.4086C32.0152 42.4086 32.372 42.0518 32.372 41.6122V40.0195C32.372 39.5799 32.0152 39.2231 31.5757 39.2231C31.1361 39.2231 30.7793 39.5799 30.7793 40.0195V41.6122C30.7793 42.0518 31.1361 42.4086 31.5757 42.4086Z" fill="#6FA4D8"/>
</g>
</g>
</g>
</g>
<defs>
<clipPath id="clip0_118_915">
<rect width="50.9667" height="50.9667" fill="white" transform="translate(0.365234 0.202148)"/>
</clipPath>
<clipPath id="clip1_118_915">
<rect width="50.9667" height="50.9667" fill="white" transform="translate(0.365234 0.202148)"/>
</clipPath>
<clipPath id="clip2_118_915">
<rect width="45.697" height="49.374" fill="white" transform="translate(3 0.998535)"/>
</clipPath>
<clipPath id="clip3_118_915">
<rect width="3.18542" height="9.55625" fill="white" transform="translate(16.8418 26.4814)"/>
</clipPath>
<clipPath id="clip4_118_915">
<rect width="3.18542" height="9.55625" fill="white" transform="translate(32.7695 26.4814)"/>
</clipPath>
<clipPath id="clip5_118_915">
<rect width="19.1125" height="28.6688" fill="white" transform="translate(16.8418 12.1475)"/>
</clipPath>
<clipPath id="clip6_118_915">
<rect width="14.3344" height="11.149" fill="white" transform="translate(12.0645 8.96191)"/>
</clipPath>
<clipPath id="clip7_118_915">
<rect width="14.3344" height="11.149" fill="white" transform="translate(26.3984 8.96191)"/>
</clipPath>
<clipPath id="clip8_118_915">
<rect width="45.697" height="9.55626" fill="white" transform="translate(3 40.8159)"/>
</clipPath>
<clipPath id="clip9_118_915">
<rect width="27.076" height="3.18543" fill="white" transform="translate(12.0645 47.187)"/>
</clipPath>
<clipPath id="clip10_118_915">
<rect width="27.076" height="3.18543" fill="white" transform="translate(12.0645 40.8159)"/>
</clipPath>
<clipPath id="clip11_118_915">
<rect width="27.076" height="3.18542" fill="white" transform="translate(12.0645 44.0015)"/>
</clipPath>
<clipPath id="clip12_118_915">
<rect width="9.0647" height="9.55625" fill="white" transform="translate(3 40.8159)"/>
</clipPath>
<clipPath id="clip13_118_915">
<rect width="9.0641" height="4.77813" fill="white" transform="translate(3.00195 40.8159)"/>
</clipPath>
<clipPath id="clip14_118_915">
<rect width="1.10116" height="1.59271" fill="white" transform="translate(3 44.7979)"/>
</clipPath>
<clipPath id="clip15_118_915">
<rect width="3.18542" height="9.55625" fill="white" transform="translate(39.1406 40.8159)"/>
</clipPath>
<clipPath id="clip16_118_915">
<rect width="3.18542" height="4.77813" fill="white" transform="translate(39.1406 40.8159)"/>
</clipPath>
<clipPath id="clip17_118_915">
<rect width="6.37084" height="9.55625" fill="white" transform="translate(42.3262 40.8159)"/>
</clipPath>
<clipPath id="clip18_118_915">
<rect width="6.37084" height="4.77813" fill="white" transform="translate(42.3262 40.8159)"/>
</clipPath>
<clipPath id="clip19_118_915">
<rect width="38.225" height="3.18542" fill="white" transform="translate(7.28711 2.59082)"/>
</clipPath>
<clipPath id="clip20_118_915">
<rect width="20.7052" height="3.18542" fill="white" transform="translate(7.28711 2.59082)"/>
</clipPath>
<clipPath id="clip21_118_915">
<rect width="21.5016" height="6.37083" fill="white" transform="translate(15.6484 5.77637)"/>
</clipPath>
<clipPath id="clip22_118_915">
<rect width="10.7508" height="3.18542" fill="white" transform="translate(15.6484 8.96191)"/>
</clipPath>
<clipPath id="clip23_118_915">
<rect width="1.59271" height="9.55625" fill="white" transform="translate(40.7324 2.59082)"/>
</clipPath>
<clipPath id="clip24_118_915">
<rect width="17.5198" height="1.59271" fill="white" transform="translate(24.8066 0.998535)"/>
</clipPath>
<clipPath id="clip25_118_915">
<rect width="3.18542" height="3.18542" fill="white" transform="translate(39.9375 10.5547)"/>
</clipPath>
<clipPath id="clip26_118_915">
<rect width="3.18542" height="1.59271" fill="white" transform="translate(39.9375 12.1475)"/>
</clipPath>
<clipPath id="clip27_118_915">
<rect width="1.59271" height="1.59271" fill="white" transform="translate(39.9375 12.1475)"/>
</clipPath>
<clipPath id="clip28_118_915">
<rect width="2.38907" height="6.37083" fill="white" transform="translate(39.1406 13.7402)"/>
</clipPath>
<clipPath id="clip29_118_915">
<rect width="2.38906" height="6.37083" fill="white" transform="translate(41.5293 13.7402)"/>
</clipPath>
<clipPath id="clip30_118_915">
<rect width="0.796354" height="5.57448" fill="white" transform="translate(39.9375 14.5361)"/>
</clipPath>
<clipPath id="clip31_118_915">
<rect width="0.79635" height="3.18542" fill="white" transform="translate(42.3262 16.9253)"/>
</clipPath>
<clipPath id="clip32_118_915">
<rect width="9.55626" height="9.55625" fill="white" transform="translate(16.8418 15.3325)"/>
</clipPath>
<clipPath id="clip33_118_915">
<rect width="9.55626" height="9.55625" fill="white" transform="translate(16.8418 15.3325)"/>
</clipPath>
<clipPath id="clip34_118_915">
<rect width="3.18542" height="3.18542" fill="white" transform="translate(20.0273 18.5181)"/>
</clipPath>
<clipPath id="clip35_118_915">
<rect width="9.55625" height="9.55625" fill="white" transform="translate(26.3984 15.3325)"/>
</clipPath>
<clipPath id="clip36_118_915">
<rect width="3.18541" height="3.18542" fill="white" transform="translate(29.584 18.5181)"/>
</clipPath>
<clipPath id="clip37_118_915">
<rect width="2.9295" height="4.49701" fill="white" transform="translate(24.9336 20.1108)"/>
</clipPath>
<clipPath id="clip38_118_915">
<rect width="3.18542" height="1.59271" fill="white" transform="translate(22.418 26.4814)"/>
</clipPath>
<clipPath id="clip39_118_915">
<rect width="3.18541" height="1.59271" fill="white" transform="translate(27.1953 26.4814)"/>
</clipPath>
<clipPath id="clip40_118_915">
<rect width="3.18542" height="1.59271" fill="white" transform="translate(22.418 32.8525)"/>
</clipPath>
<clipPath id="clip41_118_915">
<rect width="3.18541" height="1.59271" fill="white" transform="translate(27.1953 32.8525)"/>
</clipPath>
<clipPath id="clip42_118_915">
<rect width="3.18543" height="1.59271" fill="white" transform="translate(24.8066 29.667)"/>
</clipPath>
<clipPath id="clip43_118_915">
<rect width="3.18543" height="1.59271" fill="white" transform="translate(24.8066 36.0381)"/>
</clipPath>
<clipPath id="clip44_118_915">
<rect width="1.59271" height="3.18542" fill="white" transform="translate(20.4258 39.2231)"/>
</clipPath>
<clipPath id="clip45_118_915">
<rect width="1.59271" height="3.18542" fill="white" transform="translate(22.0195 39.2231)"/>
</clipPath>
<clipPath id="clip46_118_915">
<rect width="1.59271" height="3.18542" fill="white" transform="translate(23.6113 39.2231)"/>
</clipPath>
<clipPath id="clip47_118_915">
<rect width="1.59271" height="3.18542" fill="white" transform="translate(27.5938 39.2231)"/>
</clipPath>
<clipPath id="clip48_118_915">
<rect width="1.59271" height="3.18542" fill="white" transform="translate(29.1855 39.2231)"/>
</clipPath>
<clipPath id="clip49_118_915">
<rect width="1.59271" height="3.18542" fill="white" transform="translate(30.7793 39.2231)"/>
</clipPath>
</defs>
</svg>
