<svg width="52" height="52" viewBox="0 0 52 52" fill="none" xmlns="http://www.w3.org/2000/svg">
<g clip-path="url(#clip0_118_869)">
<g clip-path="url(#clip1_118_869)">
<g clip-path="url(#clip2_118_869)">
<path d="M30.9394 31.2931V23.3296H21.3831V31.2931L9.91563 46.5831C8.73463 48.1583 9.85829 50.4056 11.8269 50.4056H40.4956C42.4642 50.4056 43.5879 48.1583 42.4069 46.5831L30.9394 31.2931Z" fill="#6FA4D8"/>
</g>
<g clip-path="url(#clip3_118_869)">
<path d="M42.4066 46.5831L30.9391 31.2931V23.3296H26.1609H21.3828V25.3205H24.9664C25.6258 25.3205 26.1609 25.8556 26.1609 26.515V31.2931L32.5318 50.4056H40.4953C42.4639 50.4056 43.5876 48.1583 42.4066 46.5831Z" fill="#5C76B2"/>
</g>
<g clip-path="url(#clip4_118_869)">
<path d="M30.94 23.3295H21.3837C20.5038 23.3295 19.791 22.6167 19.791 21.7368C19.791 20.8568 20.5038 20.144 21.3837 20.144H30.94C31.8199 20.144 32.5327 20.8568 32.5327 21.7368C32.5327 22.6167 31.8199 23.3295 30.94 23.3295Z" fill="#6FA4D8"/>
</g>
<g clip-path="url(#clip5_118_869)">
<path d="M30.9402 20.144H26.1621C27.0421 20.144 27.7548 20.8568 27.7548 21.7368C27.7548 22.6167 27.0421 23.3295 26.1621 23.3295H30.9402C31.8202 23.3295 32.5329 22.6167 32.5329 21.7368C32.5329 20.8568 31.8202 20.144 30.9402 20.144Z" fill="#5C76B2"/>
</g>
<g clip-path="url(#clip6_118_869)">
<path d="M38.9033 47.2205H13.4199L19.3926 39.2569L19.3934 39.2561C21.0848 36.9993 24.4701 36.9985 26.1624 39.2545L26.1632 39.2553C27.8554 41.5106 31.2376 41.5114 32.9306 39.2569L38.9033 47.2205Z" fill="#F68820"/>
</g>
<g clip-path="url(#clip7_118_869)">
<path d="M32.9306 39.2569L32.9298 39.2561C31.2383 36.9993 27.853 36.9985 26.1608 39.2545L26.16 39.2553C24.4677 41.5106 21.0856 41.5114 19.3926 39.2569L13.4199 47.2205H38.9033L32.9306 39.2569Z" fill="#FBBE18"/>
</g>
<g clip-path="url(#clip8_118_869)">
<path d="M32.9309 39.2572L32.9301 39.2564C31.8073 37.7576 29.939 37.2599 28.3145 37.7512L31.4712 47.2207H38.9036L32.9309 39.2572Z" fill="#F68820"/>
</g>
<g clip-path="url(#clip9_118_869)">
<path d="M23.3742 44.433C24.0339 44.433 24.5687 43.8982 24.5687 43.2385C24.5687 42.5788 24.0339 42.0439 23.3742 42.0439C22.7145 42.0439 22.1797 42.5788 22.1797 43.2385C22.1797 43.8982 22.7145 44.433 23.3742 44.433Z" fill="#F68820"/>
</g>
<g clip-path="url(#clip10_118_869)">
<path d="M20.5874 46.0258C21.0272 46.0258 21.3837 45.6693 21.3837 45.2295C21.3837 44.7896 21.0272 44.4331 20.5874 44.4331C20.1476 44.4331 19.791 44.7896 19.791 45.2295C19.791 45.6693 20.1476 46.0258 20.5874 46.0258Z" fill="#F68820"/>
</g>
<g clip-path="url(#clip11_118_869)">
<path d="M22.179 15.3659C24.3781 15.3659 26.1608 13.5832 26.1608 11.3841C26.1608 9.18504 24.3781 7.40234 22.179 7.40234C19.98 7.40234 18.1973 9.18504 18.1973 11.3841C18.1973 13.5832 19.98 15.3659 22.179 15.3659Z" fill="#F68820"/>
</g>
<g clip-path="url(#clip12_118_869)">
<path d="M20.9855 11.3842C21.6453 11.3842 22.1801 10.8494 22.1801 10.1896C22.1801 9.52993 21.6453 8.99512 20.9855 8.99512C20.3258 8.99512 19.791 9.52993 19.791 10.1896C19.791 10.8494 20.3258 11.3842 20.9855 11.3842Z" fill="#FBBE18"/>
</g>
<g clip-path="url(#clip13_118_869)">
<path d="M30.143 18.5516C31.4624 18.5516 32.532 17.4819 32.532 16.1625C32.532 14.8431 31.4624 13.7734 30.143 13.7734C28.8235 13.7734 27.7539 14.8431 27.7539 16.1625C27.7539 17.4819 28.8235 18.5516 30.143 18.5516Z" fill="#F68820"/>
</g>
<g clip-path="url(#clip14_118_869)">
<path d="M29.3471 16.1625C29.7869 16.1625 30.1435 15.806 30.1435 15.3662C30.1435 14.9264 29.7869 14.5698 29.3471 14.5698C28.9073 14.5698 28.5508 14.9264 28.5508 15.3662C28.5508 15.806 28.9073 16.1625 29.3471 16.1625Z" fill="#FBBE18"/>
</g>
<g clip-path="url(#clip15_118_869)">
<path d="M33.528 2.02718C33.528 2.57667 32.5326 4.21715 32.5326 4.21715C32.5326 4.21715 31.5371 2.57667 31.5371 2.02718C31.5371 1.4777 31.9831 1.03174 32.5326 1.03174C33.082 1.03174 33.528 1.4777 33.528 2.02718Z" fill="#F68820"/>
</g>
<g clip-path="url(#clip16_118_869)">
<path d="M29.7545 3.05576C30.2307 3.3313 31.1537 5.0132 31.1537 5.0132C31.1537 5.0132 29.2353 5.0554 28.7591 4.78066C28.2837 4.50512 28.1204 3.89671 28.3951 3.42049C28.6699 2.94427 29.2791 2.78102 29.7545 3.05576Z" fill="#F68820"/>
</g>
<g clip-path="url(#clip17_118_869)">
<path d="M28.7593 6.83887C29.2355 6.56413 31.1539 6.60634 31.1539 6.60634C31.1539 6.60634 30.231 8.28824 29.7548 8.56378C29.2785 8.83852 28.6701 8.67526 28.3946 8.19904C28.1206 7.72282 28.2839 7.11441 28.7593 6.83887Z" fill="#F68820"/>
</g>
<g clip-path="url(#clip18_118_869)">
<path d="M31.5371 9.59232C31.5371 9.04283 32.5326 7.40234 32.5326 7.40234C32.5326 7.40234 33.528 9.04283 33.528 9.59232C33.528 10.1418 33.082 10.5878 32.5326 10.5878C31.9831 10.5878 31.5371 10.1418 31.5371 9.59232Z" fill="#F68820"/>
</g>
<g clip-path="url(#clip19_118_869)">
<path d="M35.3094 8.56378C34.8331 8.28824 33.9102 6.60634 33.9102 6.60634C33.9102 6.60634 35.8286 6.56413 36.3048 6.83887C36.781 7.11361 36.9443 7.72282 36.6695 8.19904C36.394 8.67526 35.7848 8.83852 35.3094 8.56378Z" fill="#F68820"/>
</g>
<g clip-path="url(#clip20_118_869)">
<path d="M36.3048 4.78102C35.8286 5.05576 33.9102 5.01355 33.9102 5.01355C33.9102 5.01355 34.8331 3.33165 35.3093 3.05611C35.7856 2.78057 36.394 2.94462 36.6687 3.42084C36.9435 3.89706 36.7802 4.50548 36.3048 4.78102Z" fill="#F68820"/>
</g>
</g>
</g>
<defs>
<clipPath id="clip0_118_869">
<rect width="50.9667" height="50.9667" fill="white" transform="translate(0.677734 0.235352)"/>
</clipPath>
<clipPath id="clip1_118_869">
<rect width="33.4553" height="49.374" fill="white" transform="translate(9.43359 1.03174)"/>
</clipPath>
<clipPath id="clip2_118_869">
<rect width="33.4553" height="27.076" fill="white" transform="translate(9.43359 23.3296)"/>
</clipPath>
<clipPath id="clip3_118_869">
<rect width="21.5058" height="27.076" fill="white" transform="translate(21.3828 23.3296)"/>
</clipPath>
<clipPath id="clip4_118_869">
<rect width="12.7417" height="3.18542" fill="white" transform="translate(19.791 20.144)"/>
</clipPath>
<clipPath id="clip5_118_869">
<rect width="6.37083" height="3.18542" fill="white" transform="translate(26.1621 20.144)"/>
</clipPath>
<clipPath id="clip6_118_869">
<rect width="25.4833" height="9.65748" fill="white" transform="translate(13.4199 37.563)"/>
</clipPath>
<clipPath id="clip7_118_869">
<rect width="25.4833" height="9.65748" fill="white" transform="translate(13.4199 37.563)"/>
</clipPath>
<clipPath id="clip8_118_869">
<rect width="10.5891" height="9.65233" fill="white" transform="translate(28.3145 37.5684)"/>
</clipPath>
<clipPath id="clip9_118_869">
<rect width="2.38906" height="2.38906" fill="white" transform="translate(22.1797 42.0439)"/>
</clipPath>
<clipPath id="clip10_118_869">
<rect width="1.59271" height="1.59271" fill="white" transform="translate(19.791 44.4331)"/>
</clipPath>
<clipPath id="clip11_118_869">
<rect width="7.96354" height="7.96354" fill="white" transform="translate(18.1973 7.40234)"/>
</clipPath>
<clipPath id="clip12_118_869">
<rect width="2.38906" height="2.38906" fill="white" transform="translate(19.791 8.99512)"/>
</clipPath>
<clipPath id="clip13_118_869">
<rect width="4.77812" height="4.77812" fill="white" transform="translate(27.7539 13.7734)"/>
</clipPath>
<clipPath id="clip14_118_869">
<rect width="1.59271" height="1.59271" fill="white" transform="translate(28.5508 14.5698)"/>
</clipPath>
<clipPath id="clip15_118_869">
<rect width="1.99089" height="3.18542" fill="white" transform="translate(31.5371 1.03174)"/>
</clipPath>
<clipPath id="clip16_118_869">
<rect width="2.89199" height="2.09317" fill="white" transform="translate(28.2617 2.92236)"/>
</clipPath>
<clipPath id="clip17_118_869">
<rect width="2.89223" height="2.09317" fill="white" transform="translate(28.2617 6.604)"/>
</clipPath>
<clipPath id="clip18_118_869">
<rect width="1.99089" height="3.18542" fill="white" transform="translate(31.5371 7.40234)"/>
</clipPath>
<clipPath id="clip19_118_869">
<rect width="2.89277" height="2.09317" fill="white" transform="translate(33.9102 6.604)"/>
</clipPath>
<clipPath id="clip20_118_869">
<rect width="2.89199" height="2.09352" fill="white" transform="translate(33.9102 2.92236)"/>
</clipPath>
</defs>
</svg>
