<svg width="52" height="52" viewBox="0 0 52 52" fill="none" xmlns="http://www.w3.org/2000/svg">
<g clip-path="url(#clip0_118_761)">
<g clip-path="url(#clip1_118_761)">
<g clip-path="url(#clip2_118_761)">
<path d="M49.6769 38.4603H5.08105V12.9769C5.08105 11.2178 6.50732 9.7915 8.26647 9.7915H46.4915C48.2506 9.7915 49.6769 11.2178 49.6769 12.9769V38.4603Z" fill="#353744"/>
</g>
<g clip-path="url(#clip3_118_761)">
<path d="M49.6769 38.4604H5.08105V40.0532C5.08105 41.8123 6.50732 43.2386 8.26647 43.2386H46.4915C48.2506 43.2386 49.6769 41.8123 49.6769 40.0532V38.4604Z" fill="#808080"/>
</g>
<g clip-path="url(#clip4_118_761)">
<path d="M46.4915 38.4603H5.08105V12.9769C5.08105 11.2178 6.50732 9.7915 8.26647 9.7915H43.3061C45.0652 9.7915 46.4915 11.2178 46.4915 12.9769V38.4603Z" fill="#55525B"/>
</g>
<g clip-path="url(#clip5_118_761)">
<path d="M46.4915 38.4604H5.08105V40.0532C5.08105 41.8123 6.50732 43.2386 8.26647 43.2386H43.3061C45.0652 43.2386 46.4915 41.8123 46.4915 40.0532V38.4604Z" fill="#DBDEE3"/>
</g>
<g clip-path="url(#clip6_118_761)">
<path d="M42.1117 12.9771H9.46113C8.80175 12.9771 8.2666 13.5122 8.2666 14.1716V34.0804C8.2666 34.7398 8.80175 35.275 9.46113 35.275H42.1117C42.771 35.275 43.3062 34.7398 43.3062 34.0804V14.1716C43.3062 13.5122 42.771 12.9771 42.1117 12.9771Z" fill="#FBBE18"/>
</g>
<g clip-path="url(#clip7_118_761)">
<path d="M13.0449 19.348H30.5646C31.4446 19.348 32.1574 18.6353 32.1574 17.7553C32.1574 16.8753 31.4446 16.1626 30.5646 16.1626H13.0449C12.1649 16.1626 11.4521 16.8753 11.4521 17.7553C11.4521 18.6353 12.1649 19.348 13.0449 19.348Z" fill="#F68820"/>
</g>
<g clip-path="url(#clip8_118_761)">
<path d="M13.0449 25.7186H30.5646C31.4446 25.7186 32.1574 25.0059 32.1574 24.1259C32.1574 23.2459 31.4446 22.5332 30.5646 22.5332H13.0449C12.1649 22.5332 11.4521 23.2459 11.4521 24.1259C11.4521 25.0059 12.1649 25.7186 13.0449 25.7186Z" fill="#F68820"/>
</g>
<g clip-path="url(#clip9_118_761)">
<path d="M13.0449 32.0897H30.5646C31.4446 32.0897 32.1574 31.377 32.1574 30.497C32.1574 29.617 31.4446 28.9043 30.5646 28.9043H13.0449C12.1649 28.9043 11.4521 29.617 11.4521 30.497C11.4521 31.377 12.1649 32.0897 13.0449 32.0897Z" fill="#F68820"/>
</g>
<g clip-path="url(#clip10_118_761)">
<path d="M33.3516 46.4238H30.1661V43.2384H33.3516V46.4238Z" fill="#808080"/>
</g>
<g clip-path="url(#clip11_118_761)">
<path d="M22.6006 43.2383H30.1659V46.4237H22.6006V43.2383Z" fill="#B3B4B6"/>
</g>
<g clip-path="url(#clip12_118_761)">
<path d="M36.5367 46.4238H16.6278C14.8687 46.4238 13.4424 47.8501 13.4424 49.6092H39.7221C39.7221 47.8501 38.2958 46.4238 36.5367 46.4238Z" fill="#DBDEE3"/>
</g>
<g clip-path="url(#clip13_118_761)">
<path d="M36.5368 46.4238H33.3514C31.5923 46.4238 30.166 47.8501 30.166 49.6092H39.7223C39.7223 47.8501 38.296 46.4238 36.5368 46.4238Z" fill="#808080"/>
</g>
<g clip-path="url(#clip14_118_761)">
<path d="M13.8408 1.82812H11.4518C6.17432 1.82812 1.89551 6.10694 1.89551 11.3844C1.89551 16.6618 6.17432 20.9406 11.4518 20.9406H13.8408C19.1183 20.9406 23.3971 16.6618 23.3971 11.3844C23.3971 6.10694 19.1183 1.82812 13.8408 1.82812Z" fill="#5C76B2"/>
</g>
<g clip-path="url(#clip15_118_761)">
<path d="M11.4518 20.9406C16.7295 20.9406 21.008 16.6621 21.008 11.3844C21.008 6.1066 16.7295 1.82812 11.4518 1.82812C6.17399 1.82812 1.89551 6.1066 1.89551 11.3844C1.89551 16.6621 6.17399 20.9406 11.4518 20.9406Z" fill="#6FA4D8"/>
</g>
<g clip-path="url(#clip16_118_761)">
<path d="M11.4518 19.348C15.85 19.348 19.4154 15.7826 19.4154 11.3844C19.4154 6.9863 15.85 3.4209 11.4518 3.4209C7.05368 3.4209 3.48828 6.9863 3.48828 11.3844C3.48828 15.7826 7.05368 19.348 11.4518 19.348Z" fill="#55525B"/>
</g>
<g clip-path="url(#clip17_118_761)">
<path d="M11.4519 11.7824C11.2321 11.7824 11.0537 11.604 11.0537 11.3842V5.01341C11.0537 4.79362 11.2321 4.61523 11.4519 4.61523C11.6717 4.61523 11.8501 4.79362 11.8501 5.01341V11.3842C11.8501 11.604 11.6717 11.7824 11.4519 11.7824Z" fill="#6FA4D8"/>
</g>
<g clip-path="url(#clip18_118_761)">
<path d="M8.07318 15.1615C7.97125 15.1615 7.86931 15.1225 7.79127 15.0452C7.63598 14.89 7.63598 14.6375 7.79127 14.4822L11.1694 11.1033C11.3247 10.948 11.5771 10.948 11.7324 11.1033C11.8877 11.2586 11.8877 11.511 11.7324 11.6663L8.35429 15.0452C8.27705 15.1225 8.17511 15.1615 8.07318 15.1615Z" fill="#6FA4D8"/>
</g>
<g clip-path="url(#clip19_118_761)">
<path d="M11.4511 12.9769C12.3307 12.9769 13.0438 12.2638 13.0438 11.3842C13.0438 10.5046 12.3307 9.7915 11.4511 9.7915C10.5715 9.7915 9.8584 10.5046 9.8584 11.3842C9.8584 12.2638 10.5715 12.9769 11.4511 12.9769Z" fill="#F68820"/>
</g>
<g clip-path="url(#clip20_118_761)">
<path d="M11.4516 12.1806C11.8914 12.1806 12.248 11.8241 12.248 11.3842C12.248 10.9444 11.8914 10.5879 11.4516 10.5879C11.0118 10.5879 10.6553 10.9444 10.6553 11.3842C10.6553 11.8241 11.0118 12.1806 11.4516 12.1806Z" fill="#DBDEE3"/>
</g>
<g clip-path="url(#clip21_118_761)">
<path d="M5.87715 11.7827H5.08079C4.861 11.7827 4.68262 11.6043 4.68262 11.3845C4.68262 11.1647 4.861 10.9863 5.08079 10.9863H5.87715C6.09694 10.9863 6.27533 11.1647 6.27533 11.3845C6.27533 11.6043 6.09694 11.7827 5.87715 11.7827Z" fill="#F68820"/>
</g>
<g clip-path="url(#clip22_118_761)">
<path d="M11.4519 18.1533C11.2321 18.1533 11.0537 17.9749 11.0537 17.7551V16.9587C11.0537 16.7389 11.2321 16.5605 11.4519 16.5605C11.6717 16.5605 11.8501 16.7389 11.8501 16.9587V17.7551C11.8501 17.9749 11.6717 18.1533 11.4519 18.1533Z" fill="#F68820"/>
</g>
<g clip-path="url(#clip23_118_761)">
<path d="M17.8225 11.7827H17.0261C16.8063 11.7827 16.6279 11.6043 16.6279 11.3845C16.6279 11.1647 16.8063 10.9863 17.0261 10.9863H17.8225C18.0423 10.9863 18.2206 11.1647 18.2206 11.3845C18.2206 11.6043 18.0423 11.7827 17.8225 11.7827Z" fill="#F68820"/>
</g>
<g clip-path="url(#clip24_118_761)">
<path d="M37.7314 32.0897C36.8514 32.0897 36.1387 31.377 36.1387 30.497C36.1387 29.617 36.8514 28.9043 37.7314 28.9043C38.6114 28.9043 39.3241 29.617 39.3241 30.497C39.3241 31.377 38.6114 32.0897 37.7314 32.0897Z" fill="#F68820"/>
</g>
<g clip-path="url(#clip25_118_761)">
<path d="M37.1352 16.7597L37.7324 17.3569L39.5242 15.5651C39.8539 15.2354 40.3891 15.2354 40.7188 15.5651C41.0484 15.8948 41.0484 16.43 40.7188 16.7597L38.3297 19.1487C38 19.4784 37.4649 19.4784 37.1352 19.1487L35.9406 17.9542C35.6109 17.6245 35.6109 17.0894 35.9406 16.7597C36.2703 16.43 36.8055 16.43 37.1352 16.7597Z" fill="#5C76B2"/>
</g>
<g clip-path="url(#clip26_118_761)">
<path d="M37.1352 23.1308L37.7324 23.728L39.5242 21.9362C39.8539 21.6065 40.3891 21.6065 40.7188 21.9362C41.0484 22.2659 41.0484 22.8011 40.7188 23.1308L38.3297 25.5198C38 25.8495 37.4649 25.8495 37.1352 25.5198L35.9406 24.3253C35.6109 23.9956 35.6109 23.4605 35.9406 23.1308C36.2703 22.8011 36.8055 22.8011 37.1352 23.1308Z" fill="#5C76B2"/>
</g>
</g>
</g>
<defs>
<clipPath id="clip0_118_761">
<rect width="50.9667" height="50.9667" fill="white" transform="translate(0.302734 0.235352)"/>
</clipPath>
<clipPath id="clip1_118_761">
<rect width="47.7812" height="47.7812" fill="white" transform="translate(1.89551 1.82812)"/>
</clipPath>
<clipPath id="clip2_118_761">
<rect width="44.5958" height="28.6688" fill="white" transform="translate(5.08105 9.7915)"/>
</clipPath>
<clipPath id="clip3_118_761">
<rect width="44.5958" height="4.77812" fill="white" transform="translate(5.08105 38.4604)"/>
</clipPath>
<clipPath id="clip4_118_761">
<rect width="41.4104" height="28.6688" fill="white" transform="translate(5.08105 9.7915)"/>
</clipPath>
<clipPath id="clip5_118_761">
<rect width="41.4104" height="4.77812" fill="white" transform="translate(5.08105 38.4604)"/>
</clipPath>
<clipPath id="clip6_118_761">
<rect width="35.0396" height="22.2979" fill="white" transform="translate(8.2666 12.9771)"/>
</clipPath>
<clipPath id="clip7_118_761">
<rect width="20.7052" height="3.18542" fill="white" transform="translate(11.4521 16.1626)"/>
</clipPath>
<clipPath id="clip8_118_761">
<rect width="20.7052" height="3.18542" fill="white" transform="translate(11.4521 22.5332)"/>
</clipPath>
<clipPath id="clip9_118_761">
<rect width="20.7052" height="3.18542" fill="white" transform="translate(11.4521 28.9043)"/>
</clipPath>
<clipPath id="clip10_118_761">
<rect width="3.18542" height="3.18542" fill="white" transform="translate(30.166 43.2383)"/>
</clipPath>
<clipPath id="clip11_118_761">
<rect width="7.56536" height="3.18542" fill="white" transform="translate(22.6006 43.2383)"/>
</clipPath>
<clipPath id="clip12_118_761">
<rect width="26.2797" height="3.18542" fill="white" transform="translate(13.4424 46.4238)"/>
</clipPath>
<clipPath id="clip13_118_761">
<rect width="9.55625" height="3.18542" fill="white" transform="translate(30.166 46.4238)"/>
</clipPath>
<clipPath id="clip14_118_761">
<rect width="21.5016" height="19.1125" fill="white" transform="translate(1.89551 1.82812)"/>
</clipPath>
<clipPath id="clip15_118_761">
<rect width="19.1125" height="19.1125" fill="white" transform="translate(1.89551 1.82812)"/>
</clipPath>
<clipPath id="clip16_118_761">
<rect width="15.9271" height="15.9271" fill="white" transform="translate(3.48828 3.4209)"/>
</clipPath>
<clipPath id="clip17_118_761">
<rect width="0.796354" height="7.16719" fill="white" transform="translate(11.0537 4.61523)"/>
</clipPath>
<clipPath id="clip18_118_761">
<rect width="4.17409" height="4.17469" fill="white" transform="translate(7.6748 10.9868)"/>
</clipPath>
<clipPath id="clip19_118_761">
<rect width="3.18542" height="3.18542" fill="white" transform="translate(9.8584 9.7915)"/>
</clipPath>
<clipPath id="clip20_118_761">
<rect width="1.59271" height="1.59271" fill="white" transform="translate(10.6553 10.5879)"/>
</clipPath>
<clipPath id="clip21_118_761">
<rect width="1.59271" height="0.796354" fill="white" transform="translate(4.68262 10.9863)"/>
</clipPath>
<clipPath id="clip22_118_761">
<rect width="0.796354" height="1.59271" fill="white" transform="translate(11.0537 16.5605)"/>
</clipPath>
<clipPath id="clip23_118_761">
<rect width="1.59271" height="0.796354" fill="white" transform="translate(16.6279 10.9863)"/>
</clipPath>
<clipPath id="clip24_118_761">
<rect width="3.18542" height="3.18542" fill="white" transform="translate(36.1387 28.9043)"/>
</clipPath>
<clipPath id="clip25_118_761">
<rect width="5.27267" height="4.07813" fill="white" transform="translate(35.6934 15.3179)"/>
</clipPath>
<clipPath id="clip26_118_761">
<rect width="5.27267" height="4.07814" fill="white" transform="translate(35.6934 21.689)"/>
</clipPath>
</defs>
</svg>
